<svg width="29" height="31" viewBox="0 0 29 31" fill="none" xmlns="http://www.w3.org/2000/svg">
<path d="M3.70711 26.7071L8.21421 22.2H24.6C26.4723 22.2 28 20.6723 28 18.8V4.4C28 2.52772 26.4723 1 24.6 1H5.4C3.52139 1 2.0123 2.53395 2.012 4.39944C2.012 4.39955 2.012 4.39965 2.012 4.39975C2.012 4.39983 2.012 4.39992 2.012 4.4L2 25.9994L1.99866 28.4156L3.70711 26.7071ZM10.4 11.8H10V11.4H10.4V11.8ZM15.2 11.8H14.8V11.4H15.2V11.8ZM20 11.8H19.6V11.4H20V11.8Z" stroke="#BEE24D" stroke-width="2"/>
</svg>
