<svg>
  <symbol fill="none" xmlns="http://www.w3.org/2000/svg" viewBox="0 0 28 28" id="subs">
    <path d="M1 26V27H2H26H27V26V23C27 21.6352 26.3084 20.5137 25.3664 19.6444C24.4313 18.7813 23.1845 18.1005 21.8737 17.5755C19.2539 16.526 16.1275 16 14 16C11.8725 16 8.74608 16.526 6.12625 17.5755C4.81554 18.1005 3.56873 18.7813 2.63357 19.6444C1.69161 20.5137 1 21.6352 1 23V26ZM14 15C17.8673 15 21 11.8673 21 8C21 4.13272 17.8673 1 14 1C10.1327 1 7 4.13272 7 8C7 11.8673 10.1327 15 14 15Z" stroke-width="2"></path>
  </symbol>
	<symbol fill="none" xmlns="http://www.w3.org/2000/svg" viewBox="0 0 32 28" id="category">
    <circle cx="6" cy="6" r="5" stroke-width="2"></circle>
    <circle cx="26" cy="6" r="5" stroke-width="2"></circle>
    <circle cx="16" cy="22" r="5" stroke-width="2"></circle>
  </symbol>
	<symbol fill="none" xmlns="http://www.w3.org/2000/svg" viewBox="0 0 30 27" id="views">
    <path d="M13.4911 24.3119L13.4896 24.3106C9.6067 20.8567 6.46584 18.0608 4.28366 15.4437C2.11233 12.8397 1 10.5387 1 8.09264C1 4.13112 4.16404 1 8.25 1C10.5643 1 12.7959 2.06165 14.2449 3.73076L15 4.60062L15.7551 3.73076C17.2041 2.06165 19.4357 1 21.75 1C25.836 1 29 4.13112 29 8.09264C29 10.5388 27.8877 12.8398 25.7161 15.4458C23.5345 18.0639 20.3951 20.8624 16.514 24.322L16.5118 24.3241L16.5096 24.326L15.0025 25.6616L13.4911 24.3119Z" stroke-width="2"></path>
  </symbol>
	<symbol fill="none" xmlns="http://www.w3.org/2000/svg" viewBox="0 0 29 31" id="comments">
    <path d="M3.70711 26.7071L8.21421 22.2H24.6C26.4723 22.2 28 20.6723 28 18.8V4.4C28 2.52772 26.4723 1 24.6 1H5.4C3.52139 1 2.0123 2.53395 2.012 4.39944C2.012 4.39955 2.012 4.39965 2.012 4.39975C2.012 4.39983 2.012 4.39992 2.012 4.4L2 25.9994L1.99866 28.4156L3.70711 26.7071ZM10.4 11.8H10V11.4H10.4V11.8ZM15.2 11.8H14.8V11.4H15.2V11.8ZM20 11.8H19.6V11.4H20V11.8Z" stroke-width="2"></path>
  </symbol>
	<symbol fill="#333333" viewBox="0 0 8 3" xmlns="http://www.w3.org/2000/svg" id="arrow">
		<path d="M4 3L0.535898 -1.75695e-07L7.4641 4.29987e-07L4 3Z" />
	</symbol>
	<symbol xmlns="http://www.w3.org/2000/svg" viewBox="0 0 15 15" id="download">
    <path d="M13.3333 7.5V13.3333H1.66667V7.5H0V13.3333C0 14.25 0.75 15 1.66667 15H13.3333C14.25 15 15 14.25 15 13.3333V7.5H13.3333ZM8.33333 8.05833L10.4917 5.90833L11.6667 7.08333L7.5 11.25L3.33333 7.08333L4.50833 5.90833L6.66667 8.05833V0H8.33333V8.05833Z"></path>
  </symbol>
  <symbol xmlns="http://www.w3.org/2000/svg" viewBox="0 0 24 24" id="like">
    <path d="M1.5 21V22.5H3H4.8C5.68859 22.5 6.47919 22.0119 6.89368 21.2794C7.55855 22.0295 8.53335 22.5 9.606 22.5H16.905C18.0476 22.5 19.1331 21.9074 19.735 20.9166L19.7869 20.8311L19.827 20.7395L22.2194 15.2766C22.3986 14.8725 22.5 14.4269 22.5 13.96V13C22.5 11.1763 21.0008 9.72222 19.2 9.72222H16.0803L16.5456 7.39917C16.662 6.86545 16.587 6.30417 16.3443 5.82472L16.3443 5.82469L16.3382 5.81282C16.0659 5.28673 15.7159 4.79424 15.2742 4.35666L14.8655 3.94417L13.8114 2.88048L12.7459 3.93277L6.97695 9.63055C6.75774 9.84706 6.57211 10.0906 6.42347 10.3533C5.99323 9.96024 5.42051 9.72222 4.8 9.72222H3H1.5V11.2222V21Z" stroke-width="3"></path>
  </symbol>
	<symbol xmlns="http://www.w3.org/2000/svg" viewBox="0 0 1151 358" id="logo">
    <path d="M6.3 272H58.2C86.1 272 96.3 254.9 96.3 227.6V91.7C96.3 65.3 87.3 48.8 58.2 48.8H6.3V272ZM40.2 79.1H49.8C58.2 79.1 61.5 83.6 61.5 96.5V222.2C61.5 234.2 58.5 239.6 48.3 239.6H40.2V79.1ZM142.153 48.8H108.253V272H142.153V48.8ZM154.835 272H206.735C234.635 272 244.835 254.9 244.835 227.6V91.7C244.835 65.3 235.835 48.8 206.735 48.8H154.835V272ZM188.735 79.1H198.335C206.735 79.1 210.035 83.6 210.035 96.5V222.2C210.035 234.2 207.035 239.6 196.835 239.6H188.735V79.1ZM256.788 48.8V272H335.688V238.1H290.688V173.6H324.588V139.7H290.688V81.2H333.888V48.8H256.788ZM344.386 48.8V272H374.986V143.6L407.386 272H434.986V48.8H404.086V168.5L374.986 48.8H344.386ZM539.311 97.7C539.311 67.1 528.811 46.7 495.811 46.7H490.111C458.311 46.7 446.611 67.1 446.611 98V222.2C446.611 253.4 458.011 274.7 490.411 274.7H496.111C528.811 274.7 539.311 253.4 539.311 222.2V97.7ZM504.811 224.6C504.811 234.2 502.411 241.7 493.411 241.7C483.811 241.7 481.111 234.2 481.111 224.6V96.2C481.111 84.8 484.411 79.1 493.111 79.1C500.911 79.1 504.811 84.5 504.811 96.2V224.6ZM613.029 272H647.829L613.029 152.6L644.529 48.8H611.529L584.829 138.2V48.8H550.929V272H584.829V175.1L613.029 272Z"></path>
    <path d="M743.155 83.38V86.38H746.155V83.38H743.155ZM743.155 51.52H746.155V48.52H743.155V51.52ZM654.065 51.52V48.52H651.065V51.52H654.065ZM654.065 83.38H651.065V86.38H654.065V83.38ZM682.09 83.38H685.09V80.38H682.09V83.38ZM682.09 271H679.09V274H682.09V271ZM715.13 271V274H718.13V271H715.13ZM715.13 83.38V80.38H712.13V83.38H715.13ZM746.155 83.38V51.52H740.155V83.38H746.155ZM743.155 48.52H654.065V54.52H743.155V48.52ZM651.065 51.52V83.38H657.065V51.52H651.065ZM654.065 86.38H682.09V80.38H654.065V86.38ZM679.09 83.38V271H685.09V83.38H679.09ZM682.09 274H715.13V268H682.09V274ZM718.13 271V83.38H712.13V271H718.13ZM715.13 86.38H743.155V80.38H715.13V86.38ZM760.385 51.52V48.52H757.385V51.52H760.385ZM760.385 271H757.385V274H760.385V271ZM837.97 271V274H840.97V271H837.97ZM837.97 237.665H840.97V234.665H837.97V237.665ZM793.72 237.665H790.72V240.665H793.72V237.665ZM793.72 174.24V171.24H790.72V174.24H793.72ZM827.055 174.24V177.24H830.055V174.24H827.055ZM827.055 140.905H830.055V137.905H827.055V140.905ZM793.72 140.905H790.72V143.905H793.72V140.905ZM793.72 83.38V80.38H790.72V83.38H793.72ZM836.2 83.38V86.38H839.2V83.38H836.2ZM836.2 51.52H839.2V48.52H836.2V51.52ZM757.385 51.52V271H763.385V51.52H757.385ZM760.385 274H837.97V268H760.385V274ZM840.97 271V237.665H834.97V271H840.97ZM837.97 234.665H793.72V240.665H837.97V234.665ZM796.72 237.665V174.24H790.72V237.665H796.72ZM793.72 177.24H827.055V171.24H793.72V177.24ZM830.055 174.24V140.905H824.055V174.24H830.055ZM827.055 137.905H793.72V143.905H827.055V137.905ZM796.72 140.905V83.38H790.72V140.905H796.72ZM793.72 86.38H836.2V80.38H793.72V86.38ZM839.2 83.38V51.52H833.2V83.38H839.2ZM836.2 48.52H760.385V54.52H836.2V48.52ZM913.72 271L910.737 271.32L911.025 274H913.72V271ZM945.875 271V274H949.292L948.85 270.612L945.875 271ZM917.26 51.52L920.235 51.1321L919.895 48.52H917.26V51.52ZM877.73 51.52V48.52H875.075L874.753 51.1558L877.73 51.52ZM850.885 271L847.908 270.636L847.496 274H850.885V271ZM880.68 271V274H883.376L883.663 271.32L880.68 271ZM885.105 229.7V226.7H882.41L882.122 229.38L885.105 229.7ZM909.295 229.7L912.278 229.38L911.991 226.7H909.295V229.7ZM888.35 196.955L885.367 196.64L885.017 199.955H888.35V196.955ZM896.905 115.83L899.888 115.505L893.922 115.515L896.905 115.83ZM905.755 196.955V199.955H909.1L908.738 196.63L905.755 196.955ZM913.72 274H945.875V268H913.72V274ZM948.85 270.612L920.235 51.1321L914.285 51.9078L942.9 271.388L948.85 270.612ZM917.26 48.52H877.73V54.52H917.26V48.52ZM874.753 51.1558L847.908 270.636L853.863 271.364L880.708 51.8842L874.753 51.1558ZM850.885 274H880.68V268H850.885V274ZM883.663 271.32L888.088 230.02L882.122 229.38L877.697 270.68L883.663 271.32ZM885.105 232.7H909.295V226.7H885.105V232.7ZM906.312 230.02L910.737 271.32L916.703 270.68L912.278 229.38L906.312 230.02ZM891.334 197.27L899.889 116.145L893.922 115.515L885.367 196.64L891.334 197.27ZM893.923 116.155L902.773 197.28L908.738 196.63L899.888 115.505L893.923 116.155ZM905.755 193.955H888.35V199.955H905.755V193.955ZM960.155 271H957.155V274H960.155V271ZM989.95 271V274H992.95V271H989.95ZM989.95 129.105L992.92 128.679L986.95 129.105H989.95ZM1010.31 271L1007.34 271.426L1007.7 274H1010.31V271ZM1023.58 271V274H1026.19L1026.55 271.42L1023.58 271ZM1043.64 129.105H1046.64L1040.67 128.685L1043.64 129.105ZM1043.64 271H1040.64V274H1043.64V271ZM1074.91 271V274H1077.91V271H1074.91ZM1074.91 51.52H1077.91V48.52H1074.91V51.52ZM1035.09 51.52V48.52H1032.48L1032.11 51.1042L1035.09 51.52ZM1018.86 167.455L1015.89 167.863L1021.83 167.871L1018.86 167.455ZM1002.93 51.52L1005.9 51.1116L1005.55 48.52H1002.93V51.52ZM960.155 51.52V48.52H957.155V51.52H960.155ZM960.155 274H989.95V268H960.155V274ZM992.95 271V129.105H986.95V271H992.95ZM986.981 129.531L1007.34 271.426L1013.27 270.574L992.92 128.679L986.981 129.531ZM1010.31 274H1023.58V268H1010.31V274ZM1026.55 271.42L1046.61 129.525L1040.67 128.685L1020.61 270.58L1026.55 271.42ZM1040.64 129.105V271H1046.64V129.105H1040.64ZM1043.64 274H1074.91V268H1043.64V274ZM1077.91 271V51.52H1071.91V271H1077.91ZM1074.91 48.52H1035.09V54.52H1074.91V48.52ZM1032.11 51.1042L1015.89 167.039L1021.83 167.871L1038.06 51.9358L1032.11 51.1042ZM1021.83 167.047L1005.9 51.1116L999.958 51.9284L1015.89 167.863L1021.83 167.047ZM1002.93 48.52H960.155V54.52H1002.93V48.52ZM957.155 51.52V271H963.155V51.52H957.155ZM1149.74 32.64L1152.71 33.0452L1153.18 29.64H1149.74V32.64ZM1124.96 32.64V29.64H1122.34L1121.99 32.2348L1124.96 32.64ZM1087.2 309.645L1084.23 309.24L1083.76 312.645H1087.2V309.645ZM1111.98 309.645V312.645H1114.6L1114.95 310.05L1111.98 309.645ZM1149.74 29.64H1124.96V35.64H1149.74V29.64ZM1121.99 32.2348L1084.23 309.24L1090.17 310.05L1127.93 33.0452L1121.99 32.2348ZM1087.2 312.645H1111.98V306.645H1087.2V312.645ZM1114.95 310.05L1152.71 33.0452L1146.77 32.2348L1109.01 309.24L1114.95 310.05Z"></path>
  </symbol>
  <symbol fill="none" xmlns="http://www.w3.org/2000/svg" xmlns:xlink="http://www.w3.org/1999/xlink" viewBox="0 0 410 410" id="youtube_avatar">
    <g filter="url(#filter0_d_87_372)">
      <g clip-path="url(#clip0_87_372)">
        <rect x="20" y="20" width="330" height="330" rx="40" fill="#F22185"></rect>
        <g filter="url(#filter1_d_87_372)">
          <rect x="-12.993" y="-56.3015" width="408.428" height="413.821" rx="34" transform="rotate(33.3185 -12.993 -56.3015)" stroke="#1A1A32" stroke-width="40" shape-rendering="crispEdges"></rect>
        </g>
        <rect x="35" y="50" width="300" height="300" fill="url(#pattern0)"></rect>
      </g>
    </g>
    <defs>
      <filter id="filter0_d_87_372" x="0" y="0" width="410" height="410" filterUnits="userSpaceOnUse" color-interpolation-filters="sRGB">
        <feFlood flood-opacity="0" result="BackgroundImageFix"></feFlood>
        <feColorMatrix in="SourceAlpha" type="matrix" values="0 0 0 0 0 0 0 0 0 0 0 0 0 0 0 0 0 0 127 0" result="hardAlpha"></feColorMatrix>
        <feOffset dx="20" dy="20"></feOffset>
        <feGaussianBlur stdDeviation="20"></feGaussianBlur>
        <feComposite in2="hardAlpha" operator="out"></feComposite>
        <feColorMatrix type="matrix" values="0 0 0 0 0 0 0 0 0 0 0 0 0 0 0 0 0 0 0.25 0"></feColorMatrix>
        <feBlend mode="normal" in2="BackgroundImageFix" result="effect1_dropShadow_87_372"></feBlend>
        <feBlend mode="normal" in="SourceGraphic" in2="effect1_dropShadow_87_372" result="shape"></feBlend>
      </filter>
      <filter id="filter1_d_87_372" x="-288" y="-104" width="704" height="705.544" filterUnits="userSpaceOnUse" color-interpolation-filters="sRGB">
        <feFlood flood-opacity="0" result="BackgroundImageFix"></feFlood>
        <feColorMatrix in="SourceAlpha" type="matrix" values="0 0 0 0 0 0 0 0 0 0 0 0 0 0 0 0 0 0 127 0" result="hardAlpha"></feColorMatrix>
        <feOffset dx="20" dy="20"></feOffset>
        <feGaussianBlur stdDeviation="20"></feGaussianBlur>
        <feComposite in2="hardAlpha" operator="out"></feComposite>
        <feColorMatrix type="matrix" values="0 0 0 0 0 0 0 0 0 0 0 0 0 0 0 0 0 0 0.25 0"></feColorMatrix>
        <feBlend mode="normal" in2="BackgroundImageFix" result="effect1_dropShadow_87_372"></feBlend>
        <feBlend mode="normal" in="SourceGraphic" in2="effect1_dropShadow_87_372" result="shape"></feBlend>
      </filter>
      <pattern id="pattern0" patternContentUnits="objectBoundingBox" width="1" height="1">
        <use xlink:href="#image0_87_372" transform="translate(0.038921 -0.00157598) scale(0.00533007)"></use>
      </pattern>
      <clipPath id="clip0_87_372">
        <rect x="20" y="20" width="330" height="330" rx="40" fill="white"></rect>
      </clipPath>
    </defs>
  </symbol>
  <symbol xmlns="http://www.w3.org/2000/svg" viewBox="0 0 24 24" id="instagram">
    <path fill-rule="evenodd" clip-rule="evenodd" d="M12 7.62939e-06H7.08434C5.78313 7.62939e-06 4.91566 0.289165 4.19277 0.578322C3.46988 0.867478 2.74699 1.30121 2.0241 2.02411C1.30121 2.747 1.01205 3.32531 0.578314 4.19278C0.289157 4.91567 0.144578 5.78314 0 7.08435V12V16.9157C0 18.2169 0.289157 19.0843 0.578314 19.8072C0.867471 20.5301 1.30121 21.253 2.0241 21.9759C2.74699 22.6988 3.3253 22.988 4.19277 23.4217C4.91566 23.7109 5.78313 23.8554 7.08434 24H12H16.9157C18.2169 24 19.0843 23.7109 19.8072 23.4217C20.5301 23.1325 21.253 22.6988 21.9759 21.9759C22.6988 21.253 22.988 20.6747 23.4217 19.8072C23.7108 19.0843 23.8554 18.2169 24 16.9157V12V7.08435C24 5.78314 23.7108 4.91567 23.4217 4.19278C23.1325 3.46989 22.6988 2.747 21.9759 2.02411C21.253 1.30121 20.6747 1.01206 19.8072 0.578322C19.0843 0.289165 18.2169 0.144586 16.9157 7.62939e-06H12ZM18.3614 7.08435C19.1599 7.08435 19.8072 6.43705 19.8072 5.63856C19.8072 4.84008 19.1599 4.19278 18.3614 4.19278C17.563 4.19278 16.9157 4.84008 16.9157 5.63856C16.9157 6.43705 17.563 7.08435 18.3614 7.08435ZM5.78313 12C5.78313 8.53013 8.53012 5.78314 12 5.78314C15.4699 5.78314 18.2169 8.53013 18.2169 12C18.2169 15.4699 15.4699 18.2169 12 18.2169C8.53012 18.2169 5.78313 15.4699 5.78313 12ZM12 16.0482C9.83133 16.0482 7.95181 14.3133 7.95181 12C7.95181 9.83133 9.68675 7.95182 12 7.95182C14.1687 7.95182 16.0482 9.68676 16.0482 12C16.0482 14.1687 14.1687 16.0482 12 16.0482Z"></path>
  </symbol>
	<symbol xmlns="http://www.w3.org/2000/svg" viewBox="0 0 24 17" id="youtube">
    <path d="M23.4 2.58035C23.1 1.51785 22.35 0.758921 21.3 0.45535C19.5 -7.35798e-06 11.85 -7.62939e-06 11.85 -7.62939e-06C11.85 -7.62939e-06 4.35001 -7.35798e-06 2.40001 0.45535C1.35001 0.758921 0.599995 1.51785 0.299995 2.58035C-4.58211e-06 4.55356 0 8.49999 0 8.49999C0 8.49999 4.55976e-06 12.4464 0.450005 14.4196C0.750005 15.4821 1.5 16.2411 2.55 16.5446C4.35 17 12 17 12 17C12 17 19.5 17 21.45 16.5446C22.5 16.2411 23.25 15.4821 23.55 14.4196C24 12.4464 24 8.49999 24 8.49999C24 8.49999 24 4.55356 23.4 2.58035ZM9.59999 12.1428V4.85714L15.9 8.49999L9.59999 12.1428Z"></path>
  </symbol>
  <symbol version="1.1" id="copy" xmlns="http://www.w3.org/2000/svg" xmlns:xlink="http://www.w3.org/1999/xlink" x="0px" y="0px" xml:space="preserve" viewBox="0 0 488.3 488.3">
    <g>
      <g>
        <path d="M314.25,85.4h-227c-21.3,0-38.6,17.3-38.6,38.6v325.7c0,21.3,17.3,38.6,38.6,38.6h227c21.3,0,38.6-17.3,38.6-38.6V124
			C352.75,102.7,335.45,85.4,314.25,85.4z M325.75,449.6c0,6.4-5.2,11.6-11.6,11.6h-227c-6.4,0-11.6-5.2-11.6-11.6V124
			c0-6.4,5.2-11.6,11.6-11.6h227c6.4,0,11.6,5.2,11.6,11.6V449.6z"></path>
        <path d="M401.05,0h-227c-21.3,0-38.6,17.3-38.6,38.6c0,7.5,6,13.5,13.5,13.5s13.5-6,13.5-13.5c0-6.4,5.2-11.6,11.6-11.6h227
			c6.4,0,11.6,5.2,11.6,11.6v325.7c0,6.4-5.2,11.6-11.6,11.6c-7.5,0-13.5,6-13.5,13.5s6,13.5,13.5,13.5c21.3,0,38.6-17.3,38.6-38.6
			V38.6C439.65,17.3,422.35,0,401.05,0z"></path>
      </g>
    </g>
    <g></g>
    <g></g>
    <g></g>
    <g></g>
    <g></g>
    <g></g>
    <g></g>
    <g></g>
    <g></g>
    <g></g>
    <g></g>
    <g></g>
    <g></g>
    <g></g>
    <g></g>
  </symbol>
</svg>