<svg width="28" height="28" viewBox="0 0 28 28" fill="none" xmlns="http://www.w3.org/2000/svg">
<path d="M1 26V27H2H26H27V26V23C27 21.6352 26.3084 20.5137 25.3664 19.6444C24.4313 18.7813 23.1845 18.1005 21.8737 17.5755C19.2539 16.526 16.1275 16 14 16C11.8725 16 8.74608 16.526 6.12625 17.5755C4.81554 18.1005 3.56873 18.7813 2.63357 19.6444C1.69161 20.5137 1 21.6352 1 23V26ZM14 15C17.8673 15 21 11.8673 21 8C21 4.13272 17.8673 1 14 1C10.1327 1 7 4.13272 7 8C7 11.8673 10.1327 15 14 15Z" stroke="#BEE24D" stroke-width="2"/>
</svg>
